<svg width="51" height="50" viewBox="0 0 51 50" fill="none" xmlns="http://www.w3.org/2000/svg">
<circle cx="25.8512" cy="25" r="25" fill="black"/>
<path d="M18.5595 39.5833V26.2396C17.3199 25.8993 16.2811 25.2188 15.4431 24.1979C14.605 23.1771 14.1855 21.9861 14.1845 20.625V10.4167H17.1012V20.625H18.5595V10.4167H21.4762V20.625H22.9345V10.4167H25.8512V20.625C25.8512 21.9861 25.4322 23.1771 24.5941 24.1979C23.7561 25.2188 22.7167 25.8993 21.4762 26.2396V39.5833H18.5595ZM33.1429 39.5833V27.9167H28.7679V17.7083C28.7679 15.691 29.479 13.9716 30.9014 12.5502C32.3238 11.1288 34.0431 10.4176 36.0595 10.4167V39.5833H33.1429Z" fill="white"/>
</svg>
